<svg xmlns="http://www.w3.org/2000/svg" width="600" height="400" viewBox="0 0 600 400"><rect width="100%" height="100%" fill="#EEE"/><path fill="#31343C" d="M127.115 250.05h23.17v-100.1h-23.17Zm119.55-100.1-30.89 71.5-30.46-71.5h-25.02l43.18 100.1h22.88l43.33-100.1Zm102.81 100.1h24.31l-44.75-100.1h-22.88l-44.62 100.1h23.74l8.86-21.45h46.48Zm-47.9-39.04 15.87-38.32 15.88 38.32Zm171.31 39.04-22.45-32.18c13.02-5.57 20.59-16.58 20.59-31.6 0-22.45-16.73-36.32-43.47-36.32h-43.33v100.1h23.17v-27.89h21.31l19.3 27.89Zm-25.31-63.78c0 10.87-7.15 17.45-21.3 17.45h-18.88v-34.89h18.88c14.15 0 21.3 6.43 21.3 17.44"/></svg>